<svg width="245" height="22" viewBox="0 0 245 22" fill="none" xmlns="http://www.w3.org/2000/svg">
<path fill-rule="evenodd" clip-rule="evenodd" d="M146.292 10.0483C113.761 10.439 81.2139 11.9891 48.8244 14.7598C33.4254 16.0774 15.5426 15.9127 0.607448 20.4046C-0.13673 20.6307 0.00499591 21.3088 0.0211037 21.3767C0.0533192 21.5155 0.188659 21.9773 0.781424 21.9999C0.845855 22.0031 1.30006 21.9385 1.47403 21.9159C5.88433 21.3346 10.2785 20.6565 14.6921 20.1076C29.93 18.2055 45.213 16.7685 60.5186 15.5091C80.8337 13.8363 101.323 12.945 121.693 12.2474C132.842 11.8664 144.26 12.3734 155.445 11.5854C159.552 11.5628 163.66 11.5597 167.767 11.5726C184.938 11.6339 202.09 12.2862 219.231 13.1808C224.744 13.4682 228.948 13.7782 234.344 13.9881C236.393 14.0688 239.643 14.1237 241.905 14.1592C242.237 14.1657 243.084 14.1721 243.435 14.1753C243.47 14.1818 243.506 14.1818 243.545 14.1818C243.68 14.1818 243.744 14.1721 243.757 14.1721C244.524 14.0591 244.453 13.3325 244.434 13.2227C244.43 13.2001 244.314 12.5865 243.654 12.5639C243.496 12.5575 242.365 12.5511 241.931 12.5446C239.682 12.5091 236.444 12.4542 234.405 12.3767C229.019 12.1668 224.818 11.8567 219.315 11.5693C202.148 10.6748 184.97 10.0193 167.774 9.95793C165.673 9.95147 163.57 9.94824 161.469 9.95147C161.398 9.7674 161.24 9.56072 160.892 9.4703C160.567 9.38634 158.238 9.31208 157.339 9.23781C150.687 8.68883 150.883 8.71466 143.564 8.26579C132.478 7.58441 130.79 7.42933 119.26 7.14192C98.317 6.61878 77.3641 6.66081 56.4176 6.71248C46.0764 6.74154 35.0039 7.44229 24.5049 6.13442C27.9648 5.72753 31.4377 5.43044 34.9041 5.09137C46.74 3.93528 58.5857 3.21835 70.47 2.71458C98.9775 1.50682 127.53 1.0257 156.028 2.67264C149.962 2.73076 143.899 2.86635 137.833 2.95354C113.139 3.31522 88.2078 3.04399 63.5662 4.92021C63.1248 4.95573 62.793 5.34322 62.8252 5.78563C62.8575 6.23128 63.2472 6.56391 63.6886 6.53162C88.298 4.6554 113.194 4.92987 137.855 4.56819C147.017 4.43579 156.176 4.19684 165.338 4.26788C168.482 4.29372 171.627 4.40999 174.771 4.44874C175.393 4.45843 176.994 4.58114 177.223 4.52948C177.728 4.41645 177.838 4.04183 177.87 3.85776C177.886 3.74796 177.938 3.11502 177.164 2.88897C171.888 1.34537 162.149 1.41642 157.02 1.11286C128.171 -0.59866 99.2642 -0.120738 70.4023 1.09993C58.489 1.60693 46.6144 2.32711 34.7462 3.48642C30.6001 3.89008 26.4443 4.23884 22.3143 4.77491C21.6474 4.8621 20.1494 4.98806 19.4245 5.12046C19.1217 5.17536 18.9026 5.25281 18.806 5.30771C18.4291 5.52084 18.3614 5.83086 18.3614 6.04076C18.3582 6.20223 18.4258 6.77058 19.2151 6.92558C31.2412 9.28619 44.3271 8.35942 56.4208 8.32712C77.3544 8.27545 98.2913 8.23342 119.222 8.75657C130.723 9.04397 132.404 9.19582 143.467 9.8772C144.559 9.94178 145.484 9.99984 146.292 10.0483Z" fill="#6C6C6C"/>
</svg>
